<?xml version="1.0" encoding="utf-8"?>
<!-- Generator: Adobe Illustrator 17.1.0, SVG Export Plug-In . SVG Version: 6.00 Build 0)  -->
<!DOCTYPE svg PUBLIC "-//W3C//DTD SVG 1.1//EN" "http://www.w3.org/Graphics/SVG/1.1/DTD/svg11.dtd">
<svg version="1.1" id="Layer_1" xmlns="http://www.w3.org/2000/svg" xmlns:xlink="http://www.w3.org/1999/xlink" x="0px" y="0px"
	 viewBox="0 0 401 76" enable-background="new 0 0 401 76" xml:space="preserve">
<path fill="#58595B" d="M120.287,28.198c0-7.422,0-8.754-0.095-10.276c-0.095-1.618-0.476-2.379-2.046-2.712
	c-0.38-0.095-1.189-0.143-1.618-0.143c-0.19,0-0.38-0.095-0.38-0.286c0-0.285,0.238-0.38,0.761-0.38
	c2.141,0,5.138,0.143,5.376,0.143c0.571,0,3.568-0.143,6.423-0.143c4.71,0,13.416-0.428,19.078,5.424
	c2.379,2.474,4.615,6.423,4.615,12.084c0,5.995-2.474,10.609-5.138,13.416c-2.046,2.141-6.328,5.471-14.415,5.471
	c-2.046,0-4.567-0.142-6.613-0.285c-2.093-0.142-3.711-0.285-3.949-0.285c-0.095,0-0.904,0-1.903,0.048
	c-0.951,0-2.045,0.095-2.759,0.095c-0.523,0-0.761-0.095-0.761-0.381c0-0.142,0.095-0.285,0.38-0.285
	c0.428,0,0.999-0.095,1.427-0.19c0.951-0.19,1.19-1.237,1.38-2.616c0.238-1.998,0.238-5.756,0.238-10.324V28.198z M124.283,33.337
	c0,5.043,0.048,9.42,0.095,10.324c0.048,1.189,0.143,3.092,0.523,3.615c0.619,0.904,2.474,1.903,8.088,1.903
	c4.425,0,8.516-1.618,11.323-4.424c2.474-2.426,3.806-6.994,3.806-11.371c0-6.042-2.617-9.943-4.567-11.989
	c-4.472-4.71-9.896-5.376-15.557-5.376c-0.951,0-2.712,0.143-3.092,0.333c-0.428,0.19-0.571,0.428-0.571,0.951
	c-0.048,1.618-0.048,6.47-0.048,10.133V33.337z"/>
<path fill="#58595B" d="M165.055,15.591c0.571-1.57,0.761-1.855,1.047-1.855c0.286,0,0.476,0.238,1.047,1.713
	c0.714,1.808,8.183,21.456,11.085,28.688c1.713,4.234,3.092,4.996,4.092,5.281c0.714,0.238,1.427,0.285,1.903,0.285
	c0.286,0,0.476,0.048,0.476,0.285c0,0.286-0.428,0.381-0.951,0.381c-0.714,0-4.187,0-7.469-0.095
	c-0.904-0.048-1.427-0.048-1.427-0.333c0-0.19,0.143-0.285,0.333-0.333c0.286-0.095,0.571-0.523,0.286-1.284l-4.425-11.704
	c-0.095-0.19-0.19-0.285-0.428-0.285h-10.229c-0.238,0-0.381,0.143-0.476,0.38l-2.854,8.421c-0.428,1.189-0.666,2.331-0.666,3.188
	c0,0.951,0.999,1.379,1.808,1.379h0.476c0.333,0,0.476,0.095,0.476,0.285c0,0.286-0.285,0.381-0.714,0.381
	c-1.142,0-3.187-0.143-3.711-0.143c-0.523,0-3.14,0.143-5.376,0.143c-0.618,0-0.904-0.095-0.904-0.381
	c0-0.19,0.191-0.285,0.428-0.285c0.333,0,0.999-0.047,1.38-0.095c2.189-0.285,3.14-2.093,3.996-4.472L165.055,15.591z
	 M170.003,34.621c0.238,0,0.238-0.143,0.19-0.333l-4.52-12.845c-0.238-0.714-0.476-0.714-0.714,0l-4.186,12.845
	c-0.095,0.238,0,0.333,0.143,0.333H170.003z"/>
<path fill="#58595B" d="M193.028,36.572c0,4.568,0,8.326,0.238,10.324c0.143,1.379,0.428,2.426,1.855,2.616
	c0.666,0.095,1.713,0.19,2.141,0.19c0.285,0,0.381,0.143,0.381,0.285c0,0.238-0.238,0.381-0.762,0.381
	c-2.617,0-5.614-0.143-5.852-0.143c-0.238,0-3.235,0.143-4.662,0.143c-0.523,0-0.761-0.095-0.761-0.381
	c0-0.142,0.095-0.285,0.38-0.285c0.428,0,0.999-0.095,1.427-0.19c0.951-0.19,1.19-1.237,1.38-2.616
	c0.238-1.998,0.238-5.756,0.238-10.324V16.448l-7.041,0.095c-2.95,0.048-4.091,0.38-4.853,1.522
	c-0.523,0.809-0.666,1.142-0.809,1.475c-0.143,0.38-0.286,0.476-0.476,0.476c-0.143,0-0.238-0.143-0.238-0.428
	c0-0.476,0.951-4.567,1.047-4.948c0.095-0.285,0.285-0.904,0.476-0.904c0.333,0,0.809,0.476,2.093,0.571
	c1.38,0.143,3.188,0.238,3.758,0.238h17.841c1.522,0,2.617-0.095,3.378-0.238c0.714-0.095,1.142-0.238,1.332-0.238
	c0.237,0,0.237,0.286,0.237,0.571c0,1.427-0.142,4.71-0.142,5.233c0,0.428-0.143,0.619-0.333,0.619c-0.238,0-0.333-0.143-0.38-0.809
	l-0.048-0.523c-0.142-1.427-1.284-2.521-5.852-2.617l-5.995-0.095V36.572z"/>
<path fill="#58595B" d="M214.057,15.591c0.571-1.57,0.762-1.855,1.047-1.855c0.285,0,0.476,0.238,1.046,1.713
	c0.714,1.808,8.183,21.456,11.085,28.688c1.713,4.234,3.093,4.996,4.092,5.281c0.714,0.238,1.427,0.285,1.903,0.285
	c0.285,0,0.476,0.048,0.476,0.285c0,0.286-0.428,0.381-0.951,0.381c-0.714,0-4.187,0-7.47-0.095
	c-0.904-0.048-1.427-0.048-1.427-0.333c0-0.19,0.142-0.285,0.333-0.333c0.285-0.095,0.571-0.523,0.285-1.284l-4.424-11.704
	c-0.095-0.19-0.19-0.285-0.428-0.285h-10.229c-0.238,0-0.38,0.143-0.476,0.38l-2.855,8.421c-0.428,1.189-0.666,2.331-0.666,3.188
	c0,0.951,0.999,1.379,1.808,1.379h0.476c0.333,0,0.476,0.095,0.476,0.285c0,0.286-0.285,0.381-0.714,0.381
	c-1.142,0-3.188-0.143-3.711-0.143c-0.523,0-3.141,0.143-5.376,0.143c-0.619,0-0.904-0.095-0.904-0.381
	c0-0.19,0.191-0.285,0.428-0.285c0.333,0,0.999-0.047,1.38-0.095c2.189-0.285,3.14-2.093,3.996-4.472L214.057,15.591z
	 M219.004,34.621c0.238,0,0.238-0.143,0.19-0.333l-4.519-12.845c-0.238-0.714-0.476-0.714-0.714,0l-4.187,12.845
	c-0.095,0.238,0,0.333,0.143,0.333H219.004z"/>
<path fill="#FFCE00" d="M235.37,28.198c0-7.422,0-8.754-0.096-10.276c-0.095-1.618-0.476-2.379-2.045-2.712
	c-0.381-0.095-1.19-0.143-1.618-0.143c-0.191,0-0.381-0.095-0.381-0.286c0-0.285,0.238-0.38,0.762-0.38
	c2.141,0,5.138,0.143,5.376,0.143c0.571,0,3.568-0.143,6.423-0.143c4.71,0,13.416-0.428,19.078,5.424
	c2.378,2.474,4.614,6.423,4.614,12.084c0,5.995-2.473,10.609-5.138,13.416c-2.046,2.141-6.328,5.471-14.415,5.471
	c-2.046,0-4.567-0.142-6.613-0.285c-2.093-0.142-3.711-0.285-3.949-0.285c-0.095,0-0.904,0-1.903,0.048
	c-0.952,0-2.046,0.095-2.76,0.095c-0.523,0-0.762-0.095-0.762-0.381c0-0.142,0.095-0.285,0.381-0.285
	c0.428,0,0.999-0.095,1.427-0.19c0.951-0.19,1.189-1.237,1.379-2.616c0.238-1.998,0.238-5.756,0.238-10.324V28.198z M239.366,33.337
	c0,5.043,0.048,9.42,0.095,10.324c0.048,1.189,0.143,3.092,0.523,3.615c0.619,0.904,2.474,1.903,8.088,1.903
	c4.425,0,8.516-1.618,11.323-4.424c2.474-2.426,3.806-6.994,3.806-11.371c0-6.042-2.616-9.943-4.567-11.989
	c-4.472-4.71-9.895-5.376-15.557-5.376c-0.952,0-2.712,0.143-3.093,0.333c-0.428,0.19-0.571,0.428-0.571,0.951
	c-0.048,1.618-0.048,6.47-0.048,10.133V33.337z"/>
<path fill="#FFCE00" d="M277.284,36.572c0,4.568,0,8.326,0.238,10.324c0.142,1.379,0.428,2.426,1.856,2.616
	c0.666,0.095,1.713,0.19,2.14,0.19c0.286,0,0.381,0.143,0.381,0.285c0,0.238-0.238,0.381-0.762,0.381
	c-2.616,0-5.613-0.143-5.852-0.143s-3.235,0.143-4.662,0.143c-0.523,0-0.762-0.095-0.762-0.381c0-0.142,0.095-0.285,0.381-0.285
	c0.428,0,0.999-0.095,1.427-0.19c0.952-0.19,1.19-1.237,1.38-2.616c0.238-1.998,0.238-5.756,0.238-10.324v-8.373
	c0-7.422,0-8.754-0.095-10.276c-0.096-1.618-0.571-2.427-1.618-2.664c-0.523-0.143-1.141-0.19-1.475-0.19
	c-0.19,0-0.38-0.095-0.38-0.286c0-0.285,0.237-0.38,0.761-0.38c1.57,0,4.567,0.143,4.805,0.143s3.235-0.143,4.662-0.143
	c0.523,0,0.761,0.095,0.761,0.38c0,0.191-0.19,0.286-0.38,0.286c-0.333,0-0.619,0.048-1.189,0.143
	c-1.284,0.238-1.665,1.047-1.761,2.712c-0.095,1.522-0.095,2.854-0.095,10.276V36.572z"/>
<path fill="#FFCE00" d="M286.607,28.198c0-7.422,0-8.754-0.096-10.276c-0.095-1.618-0.476-2.379-2.045-2.712
	c-0.381-0.095-1.19-0.143-1.618-0.143c-0.191,0-0.381-0.095-0.381-0.286c0-0.285,0.238-0.38,0.762-0.38
	c2.141,0,5.138,0.143,5.376,0.143c0.523,0,4.139-0.143,5.614-0.143c2.997,0,6.185,0.285,8.706,2.093
	c1.189,0.856,3.282,3.187,3.282,6.47c0,3.521-1.475,7.041-5.756,10.99c3.901,4.995,7.137,9.229,9.896,12.179
	c2.569,2.712,4.614,3.235,5.804,3.426c0.905,0.142,1.57,0.142,1.856,0.142c0.238,0,0.428,0.143,0.428,0.285
	c0,0.286-0.285,0.381-1.142,0.381h-3.378c-2.664,0-3.854-0.238-5.09-0.905c-2.046-1.094-3.711-3.425-6.423-6.994
	c-1.998-2.616-4.234-5.804-5.186-7.041c-0.19-0.191-0.333-0.286-0.619-0.286l-5.852-0.095c-0.238,0-0.333,0.143-0.333,0.381v1.142
	c0,4.568,0,8.326,0.238,10.324c0.142,1.379,0.428,2.426,1.855,2.616c0.667,0.095,1.713,0.19,2.141,0.19
	c0.286,0,0.381,0.143,0.381,0.285c0,0.238-0.238,0.381-0.762,0.381c-2.616,0-5.614-0.143-5.852-0.143
	c-0.048,0-3.045,0.143-4.472,0.143c-0.523,0-0.762-0.095-0.762-0.381c0-0.142,0.095-0.285,0.381-0.285
	c0.428,0,0.999-0.095,1.427-0.19c0.951-0.19,1.189-1.237,1.379-2.616c0.238-1.998,0.238-5.756,0.238-10.324V28.198z M290.413,32.337
	c0,0.238,0.095,0.428,0.333,0.571c0.714,0.428,2.902,0.761,4.996,0.761c1.141,0,2.474-0.143,3.568-0.904
	c1.665-1.142,2.903-3.711,2.903-7.327c0-5.947-3.14-9.515-8.231-9.515c-1.427,0-2.712,0.143-3.188,0.285
	c-0.237,0.095-0.38,0.286-0.38,0.571V32.337z"/>
<path fill="#FFCE00" d="M314.867,28.198c0-7.422,0-8.754-0.095-10.276c-0.096-1.618-0.476-2.379-2.046-2.712
	c-0.381-0.095-1.19-0.143-1.618-0.143c-0.191,0-0.381-0.095-0.381-0.286c0-0.285,0.238-0.38,0.762-0.38c1.094,0,2.378,0,3.425,0.048
	l1.951,0.095c0.333,0,9.8,0,10.895-0.048c0.904-0.048,1.665-0.143,2.045-0.238c0.238-0.048,0.428-0.238,0.667-0.238
	c0.142,0,0.19,0.191,0.19,0.428c0,0.333-0.238,0.904-0.38,2.236c-0.048,0.476-0.143,2.569-0.238,3.14
	c-0.047,0.238-0.143,0.523-0.333,0.523c-0.285,0-0.38-0.238-0.38-0.619c0-0.333-0.047-1.142-0.285-1.713
	c-0.333-0.761-0.809-1.332-3.378-1.618c-0.809-0.095-5.995-0.143-6.518-0.143c-0.19,0-0.285,0.143-0.285,0.476v13.131
	c0,0.333,0.048,0.476,0.285,0.476c0.619,0,6.471,0,7.565-0.095c1.142-0.095,1.808-0.19,2.236-0.666
	c0.333-0.381,0.523-0.619,0.714-0.619c0.142,0,0.237,0.095,0.237,0.381c0,0.285-0.237,1.094-0.38,2.664
	c-0.095,0.951-0.19,2.712-0.19,3.045c0,0.381,0,0.904-0.333,0.904c-0.237,0-0.332-0.19-0.332-0.428c0-0.476,0-0.952-0.191-1.57
	c-0.19-0.666-0.618-1.475-2.474-1.665c-1.284-0.143-5.995-0.238-6.803-0.238c-0.238,0-0.333,0.143-0.333,0.333v4.186
	c0,1.618-0.047,7.136,0,8.135c0.143,3.283,0.857,3.902,5.519,3.902c1.237,0,3.33,0,4.567-0.523c1.237-0.523,1.808-1.475,2.141-3.425
	c0.095-0.523,0.19-0.714,0.428-0.714c0.286,0,0.286,0.38,0.286,0.714c0,0.38-0.381,3.615-0.619,4.614
	c-0.333,1.237-0.714,1.237-2.569,1.237c-3.568,0-6.185-0.095-8.04-0.142c-1.855-0.095-2.997-0.143-3.711-0.143
	c-0.095,0-0.904,0-1.903,0.048c-0.952,0-2.046,0.095-2.76,0.095c-0.523,0-0.762-0.095-0.762-0.381c0-0.142,0.095-0.285,0.381-0.285
	c0.428,0,0.999-0.095,1.427-0.19c0.952-0.19,1.19-1.237,1.38-2.616c0.238-1.998,0.238-5.756,0.238-10.324V28.198z"/>
<path fill="#FFCE00" d="M339.462,45.897c-4.614-4.14-5.756-9.563-5.756-14.082c0-3.187,1.094-8.754,5.329-12.988
	c2.854-2.855,7.184-5.091,14.51-5.091c1.903,0,4.567,0.143,6.898,0.571c1.808,0.333,3.33,0.619,4.853,0.714
	c0.523,0.048,0.619,0.238,0.619,0.523c0,0.381-0.143,0.952-0.238,2.664c-0.095,1.57-0.095,4.186-0.143,4.9
	c-0.047,0.714-0.142,0.999-0.428,0.999c-0.333,0-0.381-0.333-0.381-0.999c0-1.855-0.761-3.806-1.998-4.853
	c-1.665-1.427-5.328-2.712-9.515-2.712c-6.328,0-9.277,1.856-10.942,3.473c-3.473,3.33-4.282,7.564-4.282,12.417
	c0,9.087,6.994,17.413,17.175,17.413c3.568,0,6.375-0.428,8.278-2.379c0.999-1.047,1.618-3.14,1.761-3.997
	c0.095-0.523,0.19-0.714,0.476-0.714c0.238,0,0.333,0.333,0.333,0.714c0,0.333-0.571,4.472-1.047,6.09
	c-0.285,0.904-0.38,1-1.237,1.38c-1.903,0.761-5.518,1.094-8.563,1.094C348.026,51.035,343.221,49.274,339.462,45.897z"/>
<path fill="#FFCE00" d="M387.608,36.572c0,4.568,0,8.326,0.237,10.324c0.143,1.379,0.428,2.426,1.856,2.616
	c0.666,0.095,1.713,0.19,2.141,0.19c0.285,0,0.38,0.143,0.38,0.285c0,0.238-0.237,0.381-0.761,0.381
	c-2.616,0-5.614-0.143-5.852-0.143c-0.237,0-3.235,0.143-4.662,0.143c-0.523,0-0.761-0.095-0.761-0.381
	c0-0.142,0.095-0.285,0.38-0.285c0.428,0,0.999-0.095,1.427-0.19c0.952-0.19,1.189-1.237,1.379-2.616
	c0.238-1.998,0.238-5.756,0.238-10.324V16.448l-7.041,0.095c-2.949,0.048-4.091,0.38-4.853,1.522
	c-0.523,0.809-0.666,1.142-0.809,1.475c-0.142,0.38-0.285,0.476-0.476,0.476c-0.143,0-0.238-0.143-0.238-0.428
	c0-0.476,0.952-4.567,1.047-4.948c0.095-0.285,0.285-0.904,0.475-0.904c0.333,0,0.809,0.476,2.094,0.571
	c1.379,0.143,3.187,0.238,3.758,0.238h17.841c1.522,0,2.617-0.095,3.378-0.238c0.714-0.095,1.141-0.238,1.331-0.238
	c0.238,0,0.238,0.286,0.238,0.571c0,1.427-0.142,4.71-0.142,5.233c0,0.428-0.143,0.619-0.333,0.619c-0.238,0-0.333-0.143-0.38-0.809
	l-0.048-0.523c-0.143-1.427-1.284-2.521-5.852-2.617l-5.995-0.095V36.572z"/>
<path fill="#58595B" d="M121.565,63.776c0,1.441,0.018,2.494,0.088,3.127c0.053,0.439,0.158,0.72,0.615,0.79
	c0.211,0.035,0.545,0.053,0.755,0.053c0.193,0,0.263,0.087,0.263,0.158c0,0.105-0.105,0.158-0.334,0.158
	c-0.984,0-2.073-0.053-2.477-0.053c-0.404,0-1.388,0.053-1.967,0.053c-0.211,0-0.316-0.035-0.316-0.158
	c0-0.071,0.053-0.158,0.228-0.158c0.228,0,0.404-0.018,0.544-0.053c0.316-0.07,0.404-0.351,0.457-0.79
	c0.07-0.633,0.07-1.739,0.07-3.179v-2.635c0-2.265,0-2.687-0.018-3.161c-0.035-0.509-0.176-0.685-0.668-0.808
	c-0.123-0.035-0.386-0.052-0.615-0.052c-0.141,0-0.264-0.053-0.264-0.159c0-0.105,0.123-0.14,0.369-0.14
	c0.79,0,1.774,0.035,2.213,0.035c0.597,0,4.022,0.018,4.391,0c0.281-0.017,0.474-0.035,0.632-0.07
	c0.088-0.018,0.158-0.088,0.246-0.088c0.053,0,0.105,0.07,0.105,0.141c0,0.105-0.07,0.281-0.123,0.667
	c-0.018,0.158-0.053,1.036-0.07,1.212c-0.018,0.123-0.053,0.298-0.158,0.298c-0.105,0-0.193-0.07-0.193-0.246
	c0-0.123,0.018-0.351-0.088-0.562c-0.105-0.21-0.404-0.439-0.984-0.456l-2.564-0.053c-0.088,0-0.141,0.035-0.141,0.211v3.618
	c0,0.088,0.018,0.14,0.106,0.14l2.16-0.017c0.263,0,0.474,0,0.703-0.018c0.281-0.017,0.509-0.07,0.65-0.263
	c0.088-0.088,0.123-0.158,0.211-0.158c0.053,0,0.088,0.052,0.088,0.14c0,0.088-0.07,0.492-0.123,0.966
	c-0.035,0.299-0.053,0.984-0.053,1.089c0,0.123-0.018,0.334-0.176,0.334c-0.088,0-0.141-0.106-0.141-0.211
	c0-0.105-0.035-0.281-0.106-0.457c-0.07-0.21-0.263-0.509-0.738-0.544c-0.386-0.035-2.213-0.053-2.476-0.053
	c-0.07,0-0.106,0.018-0.106,0.123V63.776z"/>
<path fill="#58595B" d="M135.805,61.089c0-2.265,0.018-2.687-0.018-3.161c-0.035-0.527-0.176-0.667-0.668-0.808
	c-0.123-0.035-0.386-0.052-0.597-0.052c-0.176,0-0.263-0.053-0.263-0.159c0-0.105,0.105-0.14,0.334-0.14
	c0.826,0,1.862,0.035,2.318,0.035c0.387,0,1.423-0.035,1.985-0.035c0.228,0,0.334,0.035,0.334,0.14c0,0.106-0.088,0.159-0.246,0.159
	c-0.176,0-0.264,0.017-0.457,0.052c-0.404,0.071-0.527,0.281-0.562,0.808c-0.035,0.474-0.035,0.896-0.035,3.161v2.09
	c0,2.178,0.421,3.021,1.177,3.618c0.685,0.545,1.423,0.597,1.95,0.597c0.667,0,1.458-0.193,2.072-0.79
	c0.861-0.808,0.896-2.107,0.896-3.635v-1.88c0-2.265-0.018-2.687-0.035-3.161c-0.035-0.509-0.158-0.667-0.65-0.808
	c-0.123-0.035-0.386-0.052-0.562-0.052c-0.176,0-0.264-0.053-0.264-0.159c0-0.105,0.105-0.14,0.316-0.14
	c0.791,0,1.827,0.035,1.844,0.035c0.176,0,1.212-0.035,1.809-0.035c0.211,0,0.316,0.035,0.316,0.14c0,0.106-0.088,0.159-0.263,0.159
	c-0.176,0-0.264,0.017-0.457,0.052c-0.421,0.071-0.527,0.281-0.562,0.808c-0.018,0.474-0.035,0.896-0.035,3.161v1.599
	c0,1.668-0.176,3.425-1.475,4.496c-1.089,0.913-2.266,1.071-3.267,1.071c-0.808,0-2.406-0.035-3.53-1.019
	c-0.79-0.685-1.405-1.791-1.405-3.952V61.089z"/>
<path fill="#58595B" d="M156.14,61.089c0-2.265,0-2.687-0.018-3.161c-0.035-0.509-0.176-0.667-0.668-0.808
	c-0.123-0.035-0.386-0.052-0.615-0.052c-0.158,0-0.263-0.053-0.263-0.159c0-0.105,0.123-0.14,0.351-0.14
	c0.808,0,1.792,0.035,2.231,0.035c0.492,0,3.917,0.018,4.215,0c0.281-0.017,0.527-0.07,0.65-0.088
	c0.088-0.017,0.176-0.07,0.246-0.07c0.088,0,0.105,0.07,0.105,0.141c0,0.105-0.088,0.281-0.123,0.966
	c-0.018,0.158-0.053,0.807-0.088,0.983c-0.018,0.07-0.053,0.246-0.176,0.246c-0.105,0-0.123-0.07-0.123-0.193
	c0-0.106-0.018-0.369-0.106-0.545c-0.123-0.263-0.246-0.474-1.019-0.544c-0.264-0.035-2.108-0.07-2.424-0.07
	c-0.07,0-0.105,0.052-0.105,0.14v3.688c0,0.088,0.018,0.158,0.105,0.158c0.351,0,2.354,0,2.705-0.035
	c0.369-0.035,0.58-0.088,0.738-0.228c0.123-0.106,0.176-0.193,0.246-0.193c0.07,0,0.123,0.07,0.123,0.158
	c0,0.087-0.035,0.333-0.123,1.089c-0.035,0.298-0.07,0.895-0.07,1.001c0,0.123-0.018,0.333-0.158,0.333
	c-0.105,0-0.141-0.052-0.141-0.123c-0.018-0.158-0.018-0.351-0.053-0.544c-0.088-0.299-0.281-0.527-0.861-0.58
	c-0.281-0.035-2.038-0.07-2.424-0.07c-0.07,0-0.088,0.07-0.088,0.158v1.194c0,0.51-0.018,1.774,0,2.213
	c0.035,1.019,0.509,1.247,2.09,1.247c0.404,0,1.054-0.017,1.458-0.193c0.386-0.176,0.562-0.492,0.668-1.106
	c0.035-0.158,0.07-0.229,0.176-0.229c0.123,0,0.141,0.193,0.141,0.352c0,0.333-0.123,1.352-0.211,1.65
	c-0.105,0.387-0.246,0.387-0.825,0.387c-1.16,0-2.09-0.018-2.846-0.053c-0.755-0.017-1.335-0.035-1.791-0.035
	c-0.176,0-0.509,0.018-0.878,0.018c-0.369,0.017-0.755,0.035-1.071,0.035c-0.193,0-0.299-0.053-0.299-0.158
	c0-0.071,0.053-0.158,0.246-0.158c0.228,0,0.404-0.018,0.544-0.053c0.316-0.07,0.404-0.351,0.457-0.79
	c0.07-0.633,0.07-1.809,0.07-3.179V61.089z"/>
<path fill="#58595B" d="M174.648,63.724c0,1.914,0,2.862,0.334,3.144c0.263,0.229,0.861,0.317,2.055,0.317
	c0.826,0,1.423-0.018,1.809-0.422c0.193-0.193,0.351-0.615,0.386-0.896c0.018-0.14,0.053-0.228,0.176-0.228
	c0.105,0,0.141,0.158,0.141,0.334c0,0.175-0.106,1.282-0.228,1.721c-0.106,0.334-0.176,0.404-0.984,0.404
	c-1.107,0-2.002-0.018-2.775-0.053c-0.773-0.017-1.423-0.035-2.055-0.035c-0.176,0-0.509,0.018-0.878,0.018
	c-0.369,0.017-0.755,0.035-1.071,0.035c-0.193,0-0.299-0.053-0.299-0.158c0-0.071,0.053-0.158,0.246-0.158
	c0.228,0,0.404-0.018,0.545-0.053c0.316-0.07,0.404-0.351,0.457-0.79c0.07-0.633,0.07-1.809,0.07-3.179v-2.635
	c0-2.265,0-2.687-0.018-3.161c-0.035-0.509-0.176-0.667-0.668-0.808c-0.123-0.035-0.316-0.052-0.509-0.052
	c-0.176,0-0.264-0.053-0.264-0.159c0-0.105,0.105-0.14,0.334-0.14c0.72,0,1.704,0.035,2.125,0.035c0.369,0,1.634-0.035,2.231-0.035
	c0.228,0,0.334,0.035,0.334,0.14c0,0.106-0.088,0.159-0.281,0.159c-0.176,0-0.422,0.017-0.597,0.052
	c-0.422,0.071-0.545,0.281-0.58,0.808c-0.035,0.474-0.035,0.896-0.035,3.161V63.724z"/>
<path fill="#58595B" d="M188.941,61.089c0-2.265,0-2.687-0.018-3.161c-0.035-0.509-0.193-0.685-0.527-0.79
	c-0.176-0.053-0.369-0.07-0.562-0.07c-0.158,0-0.246-0.036-0.246-0.176c0-0.088,0.123-0.123,0.369-0.123
	c0.58,0,1.634,0.035,2.073,0.035c0.386,0,1.388-0.035,1.985-0.035c0.193,0,0.316,0.035,0.316,0.123c0,0.14-0.088,0.176-0.246,0.176
	c-0.158,0-0.281,0.017-0.457,0.052c-0.422,0.071-0.545,0.281-0.58,0.808c-0.035,0.474-0.035,0.896-0.035,3.161v2.635
	c0,1.44,0,2.634,0.07,3.267c0.053,0.404,0.158,0.633,0.615,0.703c0.211,0.035,0.562,0.053,0.79,0.053
	c0.176,0,0.246,0.087,0.246,0.158c0,0.105-0.123,0.158-0.299,0.158c-1.019,0-2.073-0.053-2.494-0.053
	c-0.351,0-1.405,0.053-2.02,0.053c-0.193,0-0.299-0.053-0.299-0.158c0-0.071,0.053-0.158,0.246-0.158
	c0.228,0,0.404-0.018,0.544-0.053c0.316-0.07,0.404-0.281,0.457-0.72c0.07-0.615,0.07-1.809,0.07-3.249V61.089z"/>
<path fill="#58595B" d="M203.726,66.024c0.035,1.16,0.228,1.511,0.527,1.616c0.263,0.088,0.562,0.106,0.807,0.106
	c0.176,0,0.264,0.07,0.264,0.158c0,0.123-0.141,0.158-0.351,0.158c-1.001,0-1.722-0.053-2.003-0.053
	c-0.14,0-0.878,0.053-1.668,0.053c-0.211,0-0.351-0.018-0.351-0.158c0-0.088,0.105-0.158,0.246-0.158
	c0.21,0,0.491-0.018,0.702-0.071c0.404-0.105,0.457-0.509,0.474-1.809l0.141-8.852c0-0.299,0.105-0.509,0.263-0.509
	c0.193,0,0.404,0.228,0.668,0.491c0.193,0.194,2.511,2.564,4.76,4.76c1.054,1.036,3.109,3.144,3.337,3.354h0.07l-0.158-6.639
	c-0.018-0.914-0.158-1.177-0.527-1.318c-0.228-0.087-0.597-0.087-0.808-0.087c-0.193,0-0.246-0.071-0.246-0.159
	c0-0.122,0.158-0.14,0.387-0.14c0.808,0,1.633,0.035,1.967,0.035c0.175,0,0.755-0.035,1.51-0.035c0.211,0,0.351,0.018,0.351,0.14
	c0,0.088-0.087,0.159-0.263,0.159c-0.158,0-0.281,0-0.474,0.052c-0.422,0.123-0.545,0.387-0.562,1.23l-0.176,9.414
	c0,0.334-0.123,0.474-0.246,0.474c-0.263,0-0.474-0.158-0.632-0.316c-0.966-0.896-2.898-2.74-4.514-4.303
	c-1.686-1.615-3.32-3.424-3.618-3.688h-0.053L203.726,66.024z"/>
<path fill="#58595B" d="M233.457,67.061c0,0.404,0,0.421-0.193,0.526c-1.036,0.51-2.564,0.668-3.776,0.668
	c-3.794,0-7.149-1.721-7.149-5.849c0-2.389,1.282-4.057,2.705-4.883c1.475-0.86,2.862-0.966,4.163-0.966
	c1.071,0,2.424,0.176,2.74,0.246c0.316,0.053,0.86,0.141,1.229,0.158c0.176,0.018,0.211,0.07,0.211,0.176
	c0,0.175-0.106,0.579-0.106,2.459c0,0.228-0.087,0.333-0.21,0.333c-0.106,0-0.141-0.07-0.158-0.193
	c-0.036-0.334-0.123-0.808-0.527-1.229c-0.457-0.475-1.616-1.142-3.355-1.142c-0.843,0-1.914,0.018-2.986,0.878
	c-0.861,0.703-1.423,1.809-1.423,3.636c0,3.214,2.072,5.55,5.375,5.55c0.404,0,0.72,0,1.089-0.158
	c0.228-0.105,0.299-0.263,0.299-0.526v-1.37c0-0.738,0-1.3-0.018-1.757c-0.017-0.509-0.176-0.667-0.667-0.807
	c-0.123-0.036-0.387-0.053-0.597-0.053c-0.141,0-0.246-0.07-0.246-0.158c0-0.123,0.123-0.141,0.333-0.141
	c0.808,0,1.915,0.035,2.371,0.035c0.492,0,1.3-0.035,1.809-0.035c0.211,0,0.316,0.018,0.316,0.141c0,0.088-0.087,0.158-0.193,0.158
	c-0.123,0-0.246,0.017-0.421,0.053c-0.422,0.07-0.58,0.28-0.597,0.807c-0.018,0.457-0.018,1.054-0.018,1.792V67.061z"/>
<path fill="#58595B" d="M256.387,61.089c0-2.265,0-2.687-0.018-3.161c-0.035-0.509-0.175-0.667-0.667-0.808
	c-0.123-0.035-0.386-0.052-0.615-0.052c-0.158,0-0.263-0.053-0.263-0.159c0-0.105,0.123-0.14,0.351-0.14
	c0.808,0,1.792,0.035,2.108,0.035c0.527,0,1.932-0.035,2.406-0.035c0.983,0,2.107,0.088,2.933,0.632
	c0.439,0.299,1.089,1.054,1.089,2.055c0,1.107-0.633,2.09-2.143,3.302c1.37,1.686,2.459,3.038,3.39,3.969
	c0.86,0.86,1.404,0.931,1.65,0.983c0.158,0.036,0.246,0.036,0.369,0.036c0.123,0,0.193,0.087,0.193,0.158
	c0,0.123-0.105,0.158-0.298,0.158h-1.475c-0.861,0-1.283-0.088-1.686-0.299c-0.668-0.334-1.247-1.036-2.108-2.195
	c-0.615-0.808-1.264-1.809-1.458-2.037c-0.087-0.088-0.175-0.106-0.281-0.106l-1.387-0.035c-0.07,0-0.123,0.035-0.123,0.123v0.211
	c0,1.387,0.018,2.546,0.088,3.179c0.052,0.439,0.123,0.72,0.597,0.79c0.228,0.035,0.562,0.053,0.755,0.053
	c0.123,0,0.193,0.087,0.193,0.158c0,0.105-0.123,0.158-0.316,0.158c-0.895,0-2.178-0.053-2.406-0.053
	c-0.298,0-1.282,0.053-1.897,0.053c-0.193,0-0.298-0.053-0.298-0.158c0-0.071,0.052-0.158,0.246-0.158
	c0.228,0,0.404-0.018,0.544-0.053c0.316-0.07,0.404-0.351,0.457-0.79c0.07-0.633,0.07-1.809,0.07-3.179V61.089z M258.354,62.249
	c0,0.158,0.035,0.21,0.14,0.263c0.334,0.105,0.791,0.14,1.177,0.14c0.615,0,0.826-0.052,1.089-0.245
	c0.474-0.334,1.001-0.984,1.001-2.213c0-2.108-1.44-2.652-2.353-2.652c-0.387,0-0.755,0.017-0.914,0.052
	c-0.105,0.036-0.14,0.088-0.14,0.211V62.249z"/>
<path fill="#58595B" d="M275.105,61.089c0-2.265,0-2.687-0.018-3.161c-0.035-0.509-0.175-0.667-0.667-0.808
	c-0.123-0.035-0.386-0.052-0.615-0.052c-0.158,0-0.263-0.053-0.263-0.159c0-0.105,0.123-0.14,0.351-0.14
	c0.808,0,1.792,0.035,2.231,0.035c0.491,0,3.917,0.018,4.215,0c0.281-0.017,0.526-0.07,0.649-0.088
	c0.088-0.017,0.176-0.07,0.246-0.07c0.088,0,0.106,0.07,0.106,0.141c0,0.105-0.088,0.281-0.123,0.966
	c-0.018,0.158-0.053,0.807-0.088,0.983c-0.018,0.07-0.053,0.246-0.176,0.246c-0.105,0-0.123-0.07-0.123-0.193
	c0-0.106-0.017-0.369-0.105-0.545c-0.123-0.263-0.246-0.474-1.019-0.544c-0.263-0.035-2.107-0.07-2.423-0.07
	c-0.07,0-0.106,0.052-0.106,0.14v3.688c0,0.088,0.018,0.158,0.106,0.158c0.351,0,2.353,0,2.704-0.035
	c0.369-0.035,0.58-0.088,0.738-0.228c0.123-0.106,0.176-0.193,0.246-0.193c0.07,0,0.123,0.07,0.123,0.158
	c0,0.087-0.035,0.333-0.123,1.089c-0.035,0.298-0.07,0.895-0.07,1.001c0,0.123-0.018,0.333-0.158,0.333
	c-0.106,0-0.141-0.052-0.141-0.123c-0.017-0.158-0.017-0.351-0.053-0.544c-0.087-0.299-0.281-0.527-0.86-0.58
	c-0.281-0.035-2.037-0.07-2.424-0.07c-0.07,0-0.088,0.07-0.088,0.158v1.194c0,0.51-0.017,1.774,0,2.213
	c0.036,1.019,0.51,1.247,2.09,1.247c0.404,0,1.054-0.017,1.458-0.193c0.386-0.176,0.562-0.492,0.667-1.106
	c0.035-0.158,0.071-0.229,0.176-0.229c0.123,0,0.141,0.193,0.141,0.352c0,0.333-0.123,1.352-0.211,1.65
	c-0.106,0.387-0.246,0.387-0.826,0.387c-1.159,0-2.09-0.018-2.845-0.053c-0.755-0.017-1.335-0.035-1.791-0.035
	c-0.176,0-0.509,0.018-0.878,0.018c-0.369,0.017-0.755,0.035-1.072,0.035c-0.193,0-0.298-0.053-0.298-0.158
	c0-0.071,0.053-0.158,0.246-0.158c0.228,0,0.404-0.018,0.544-0.053c0.316-0.07,0.404-0.351,0.457-0.79
	c0.07-0.633,0.07-1.809,0.07-3.179V61.089z"/>
<path fill="#58595B" d="M291.049,67.869c-0.246-0.106-0.299-0.176-0.299-0.51c0-0.808,0.071-1.738,0.088-1.984
	c0-0.229,0.071-0.387,0.193-0.387c0.141,0,0.158,0.141,0.158,0.246c0,0.193,0.053,0.509,0.141,0.773
	c0.334,1.106,1.493,1.475,2.459,1.475c1.334,0,2.142-0.843,2.142-1.897c0-0.649-0.158-1.299-1.528-2.107l-0.895-0.527
	c-1.827-1.071-2.424-2.072-2.424-3.39c0-1.826,1.756-3.003,3.899-3.003c1.001,0,1.791,0.141,2.195,0.246
	c0.141,0.035,0.211,0.088,0.211,0.193c0,0.194-0.053,0.615-0.053,1.792c0,0.316-0.07,0.474-0.193,0.474
	c-0.105,0-0.158-0.088-0.158-0.264c0-0.14-0.07-0.597-0.404-0.983c-0.228-0.281-0.72-0.703-1.721-0.703
	c-1.106,0-2.107,0.58-2.107,1.599c0,0.667,0.245,1.194,1.633,1.967l0.632,0.351c2.037,1.124,2.67,2.265,2.67,3.618
	c0,1.106-0.422,2.002-1.546,2.792c-0.737,0.527-1.756,0.615-2.582,0.615C292.665,68.255,291.716,68.167,291.049,67.869z"/>
<path fill="#58595B" d="M307.696,61.089c0-2.265,0-2.687-0.018-3.161c-0.035-0.509-0.175-0.667-0.667-0.808
	c-0.123-0.035-0.386-0.052-0.615-0.052c-0.158,0-0.263-0.053-0.263-0.159c0-0.105,0.123-0.14,0.351-0.14
	c0.808,0,1.792,0.035,2.231,0.035c0.491,0,3.917,0.018,4.215,0c0.281-0.017,0.526-0.07,0.649-0.088
	c0.088-0.017,0.176-0.07,0.246-0.07c0.088,0,0.106,0.07,0.106,0.141c0,0.105-0.088,0.281-0.123,0.966
	c-0.018,0.158-0.053,0.807-0.088,0.983c-0.018,0.07-0.053,0.246-0.176,0.246c-0.105,0-0.123-0.07-0.123-0.193
	c0-0.106-0.017-0.369-0.105-0.545c-0.123-0.263-0.246-0.474-1.019-0.544c-0.263-0.035-2.107-0.07-2.423-0.07
	c-0.07,0-0.106,0.052-0.106,0.14v3.688c0,0.088,0.018,0.158,0.106,0.158c0.351,0,2.353,0,2.704-0.035
	c0.369-0.035,0.58-0.088,0.738-0.228c0.123-0.106,0.176-0.193,0.246-0.193c0.07,0,0.123,0.07,0.123,0.158
	c0,0.087-0.035,0.333-0.123,1.089c-0.035,0.298-0.07,0.895-0.07,1.001c0,0.123-0.018,0.333-0.158,0.333
	c-0.106,0-0.141-0.052-0.141-0.123c-0.017-0.158-0.017-0.351-0.053-0.544c-0.087-0.299-0.281-0.527-0.86-0.58
	c-0.281-0.035-2.037-0.07-2.424-0.07c-0.07,0-0.088,0.07-0.088,0.158v1.194c0,0.51-0.017,1.774,0,2.213
	c0.036,1.019,0.51,1.247,2.09,1.247c0.404,0,1.054-0.017,1.458-0.193c0.386-0.176,0.562-0.492,0.667-1.106
	c0.035-0.158,0.071-0.229,0.176-0.229c0.123,0,0.141,0.193,0.141,0.352c0,0.333-0.123,1.352-0.211,1.65
	c-0.106,0.387-0.246,0.387-0.826,0.387c-1.159,0-2.09-0.018-2.845-0.053c-0.755-0.017-1.335-0.035-1.791-0.035
	c-0.176,0-0.509,0.018-0.878,0.018c-0.369,0.017-0.755,0.035-1.072,0.035c-0.193,0-0.298-0.053-0.298-0.158
	c0-0.071,0.053-0.158,0.246-0.158c0.228,0,0.404-0.018,0.544-0.053c0.316-0.07,0.404-0.351,0.457-0.79
	c0.07-0.633,0.07-1.809,0.07-3.179V61.089z"/>
<path fill="#58595B" d="M325.15,64.286c-0.087,0-0.105,0.017-0.14,0.105l-0.826,2.02c-0.158,0.369-0.228,0.737-0.228,0.913
	c0,0.263,0.141,0.422,0.615,0.422h0.228c0.193,0,0.228,0.07,0.228,0.158c0,0.123-0.087,0.158-0.245,0.158
	c-0.51,0-1.23-0.053-1.722-0.053c-0.158,0-0.983,0.053-1.791,0.053c-0.193,0-0.281-0.035-0.281-0.158
	c0-0.088,0.053-0.158,0.176-0.158c0.14,0,0.316-0.018,0.456-0.018c0.703-0.105,0.966-0.562,1.282-1.317l4.04-9.327
	c0.175-0.421,0.298-0.597,0.456-0.597c0.229,0,0.299,0.141,0.457,0.474c0.369,0.826,2.951,6.868,3.934,9.134
	c0.597,1.352,1.036,1.545,1.317,1.598c0.228,0.035,0.404,0.053,0.58,0.053c0.14,0,0.21,0.052,0.21,0.158
	c0,0.123-0.087,0.158-0.667,0.158c-0.544,0-1.668,0-2.968-0.035c-0.281-0.018-0.457-0.018-0.457-0.123
	c0-0.088,0.036-0.141,0.194-0.158c0.105-0.018,0.21-0.159,0.14-0.334l-1.194-3.021c-0.035-0.088-0.088-0.105-0.158-0.105H325.15z
	 M328.452,63.46c0.07,0,0.088-0.035,0.07-0.087l-1.457-3.741c-0.018-0.053-0.035-0.141-0.071-0.141c-0.052,0-0.07,0.088-0.087,0.141
	l-1.493,3.723c-0.035,0.07,0,0.105,0.052,0.105H328.452z"/>
<path fill="#58595B" d="M342.253,61.089c0-2.265,0-2.687-0.018-3.161c-0.035-0.509-0.175-0.667-0.667-0.808
	c-0.123-0.035-0.386-0.052-0.615-0.052c-0.158,0-0.263-0.053-0.263-0.159c0-0.105,0.123-0.14,0.351-0.14
	c0.808,0,1.792,0.035,2.108,0.035c0.527,0,1.932-0.035,2.406-0.035c0.983,0,2.107,0.088,2.933,0.632
	c0.439,0.299,1.089,1.054,1.089,2.055c0,1.107-0.633,2.09-2.143,3.302c1.37,1.686,2.459,3.038,3.389,3.969
	c0.861,0.86,1.406,0.931,1.651,0.983c0.158,0.036,0.246,0.036,0.369,0.036c0.123,0,0.193,0.087,0.193,0.158
	c0,0.123-0.105,0.158-0.298,0.158h-1.475c-0.861,0-1.282-0.088-1.686-0.299c-0.668-0.334-1.247-1.036-2.108-2.195
	c-0.615-0.808-1.264-1.809-1.458-2.037c-0.087-0.088-0.175-0.106-0.281-0.106l-1.387-0.035c-0.07,0-0.123,0.035-0.123,0.123v0.211
	c0,1.387,0.018,2.546,0.088,3.179c0.053,0.439,0.123,0.72,0.597,0.79c0.228,0.035,0.562,0.053,0.755,0.053
	c0.123,0,0.193,0.087,0.193,0.158c0,0.105-0.123,0.158-0.316,0.158c-0.896,0-2.178-0.053-2.406-0.053
	c-0.298,0-1.282,0.053-1.897,0.053c-0.193,0-0.298-0.053-0.298-0.158c0-0.071,0.053-0.158,0.246-0.158
	c0.228,0,0.404-0.018,0.544-0.053c0.316-0.07,0.404-0.351,0.457-0.79c0.07-0.633,0.07-1.809,0.07-3.179V61.089z M344.22,62.249
	c0,0.158,0.035,0.21,0.141,0.263c0.333,0.105,0.79,0.14,1.176,0.14c0.615,0,0.826-0.052,1.089-0.245
	c0.474-0.334,1.001-0.984,1.001-2.213c0-2.108-1.44-2.652-2.353-2.652c-0.387,0-0.755,0.017-0.913,0.052
	c-0.106,0.036-0.141,0.088-0.141,0.211V62.249z"/>
<path fill="#58595B" d="M361.919,66.639c-1.528-1.282-1.932-2.968-1.932-4.408c0-1.019,0.334-2.775,1.809-4.092
	c1.124-0.984,2.599-1.581,4.9-1.581c0.966,0,1.545,0.071,2.248,0.158c0.579,0.088,1.089,0.193,1.545,0.246
	c0.176,0.018,0.229,0.088,0.229,0.176c0,0.123-0.035,0.298-0.071,0.825c-0.035,0.492-0.035,1.317-0.052,1.616
	c-0.018,0.211-0.07,0.369-0.211,0.369c-0.123,0-0.158-0.123-0.158-0.316c-0.018-0.475-0.211-1.001-0.597-1.388
	c-0.527-0.509-1.563-0.878-2.986-0.878c-1.352,0-2.213,0.246-2.915,0.843c-1.142,0.984-1.423,2.424-1.423,3.881
	c0,3.548,2.74,5.234,4.812,5.234c1.37,0,2.125-0.105,2.74-0.79c0.264-0.299,0.474-0.72,0.527-1.001
	c0.035-0.229,0.07-0.299,0.193-0.299c0.106,0,0.176,0.141,0.176,0.264c0,0.175-0.176,1.475-0.334,1.984
	c-0.07,0.264-0.14,0.334-0.404,0.439c-0.614,0.246-1.791,0.334-2.792,0.334C365.116,68.255,363.325,67.816,361.919,66.639z"/>
<path fill="#58595B" d="M388.735,61.634c0.035,0,0.087-0.018,0.087-0.106v-0.316c0-2.265-0.017-2.81-0.035-3.284
	c-0.035-0.509-0.175-0.667-0.667-0.808c-0.123-0.035-0.387-0.052-0.597-0.052c-0.176,0-0.264-0.053-0.264-0.159
	c0-0.105,0.106-0.14,0.334-0.14c0.825,0,1.914,0.035,2.318,0.035c0.369,0,1.388-0.035,1.985-0.035c0.228,0,0.333,0.035,0.333,0.14
	c0,0.106-0.105,0.159-0.281,0.159c-0.123,0-0.263,0.017-0.456,0.052c-0.404,0.071-0.527,0.281-0.562,0.808
	c-0.035,0.474-0.035,0.896-0.035,3.161v2.635c0,1.37,0,2.546,0.07,3.196c0.053,0.422,0.14,0.703,0.615,0.773
	c0.21,0.035,0.544,0.053,0.79,0.053c0.158,0,0.246,0.087,0.246,0.158c0,0.105-0.123,0.158-0.316,0.158
	c-1.001,0-2.02-0.053-2.441-0.053c-0.352,0-1.441,0.053-2.038,0.053c-0.21,0-0.333-0.053-0.333-0.158
	c0-0.071,0.07-0.158,0.245-0.158c0.246,0,0.422-0.018,0.562-0.053c0.317-0.07,0.404-0.351,0.457-0.79
	c0.07-0.633,0.07-1.774,0.07-3.144v-1.142c0-0.052-0.052-0.088-0.087-0.088h-5.832c-0.053,0-0.106,0.018-0.106,0.088v1.142
	c0,1.37,0.018,2.511,0.088,3.161c0.053,0.422,0.141,0.703,0.597,0.773c0.211,0.035,0.562,0.053,0.791,0.053
	c0.175,0,0.245,0.087,0.245,0.158c0,0.105-0.122,0.158-0.316,0.158c-1.001,0-2.072-0.053-2.511-0.053
	c-0.351,0-1.37,0.053-1.985,0.053c-0.193,0-0.298-0.053-0.298-0.158c0-0.071,0.052-0.158,0.246-0.158
	c0.228,0,0.404-0.018,0.544-0.053c0.316-0.07,0.404-0.351,0.457-0.79c0.07-0.633,0.07-1.809,0.07-3.179v-2.635
	c0-2.265,0-2.687-0.018-3.161c-0.035-0.509-0.175-0.667-0.667-0.808c-0.123-0.035-0.386-0.052-0.615-0.052
	c-0.158,0-0.263-0.053-0.263-0.159c0-0.105,0.123-0.14,0.334-0.14c0.825,0,1.844,0.035,2.265,0.035c0.369,0,1.44-0.035,2.055-0.035
	c0.211,0,0.316,0.035,0.316,0.14c0,0.106-0.088,0.159-0.281,0.159c-0.123,0-0.263,0.017-0.439,0.052
	c-0.421,0.071-0.544,0.281-0.58,0.808c-0.035,0.474-0.035,1.019-0.035,3.284v0.316c0,0.088,0.053,0.106,0.106,0.106H388.735z"/>
<linearGradient id="SVGID_1_" gradientUnits="userSpaceOnUse" x1="54.1844" y1="22.2018" x2="54.1917" y2="22.1891">
	<stop  offset="0.3495" style="stop-color:#CAC8C8"/>
	<stop  offset="0.4181" style="stop-color:#CDCABA"/>
	<stop  offset="0.5466" style="stop-color:#D7CF96"/>
	<stop  offset="0.7212" style="stop-color:#E6D75D"/>
	<stop  offset="0.9332" style="stop-color:#FAE10E"/>
	<stop  offset="0.9677" style="stop-color:#FEE300"/>
</linearGradient>
<path fill="url(#SVGID_1_)" d="M54.258,22.227c-0.048-0.022-0.094-0.042-0.14-0.064C54.164,22.186,54.211,22.206,54.258,22.227z"/>
<linearGradient id="SVGID_2_" gradientUnits="userSpaceOnUse" x1="60.8934" y1="26.8327" x2="60.9044" y2="26.8137">
	<stop  offset="0.3495" style="stop-color:#CAC8C8"/>
	<stop  offset="0.4181" style="stop-color:#CDCABA"/>
	<stop  offset="0.5466" style="stop-color:#D7CF96"/>
	<stop  offset="0.7212" style="stop-color:#E6D75D"/>
	<stop  offset="0.9332" style="stop-color:#FAE10E"/>
	<stop  offset="0.9677" style="stop-color:#FEE300"/>
</linearGradient>
<path fill="url(#SVGID_2_)" d="M60.872,26.795c0.018,0.018,0.036,0.039,0.055,0.057C60.906,26.832,60.892,26.815,60.872,26.795z"/>
<linearGradient id="SVGID_3_" gradientUnits="userSpaceOnUse" x1="48.3608" y1="61.9655" x2="48.4185" y2="61.8654">
	<stop  offset="0.3495" style="stop-color:#CAC8C8"/>
	<stop  offset="0.4181" style="stop-color:#CDCABA"/>
	<stop  offset="0.5466" style="stop-color:#D7CF96"/>
	<stop  offset="0.7212" style="stop-color:#E6D75D"/>
	<stop  offset="0.9332" style="stop-color:#FAE10E"/>
	<stop  offset="0.9677" style="stop-color:#FEE300"/>
</linearGradient>
<path fill="url(#SVGID_3_)" d="M48.284,61.921c0.07-0.004,0.137,0,0.207-0.004c0-0.004,0.001-0.006,0.002-0.009
	C48.424,61.914,48.357,61.917,48.284,61.921z"/>
<linearGradient id="SVGID_4_" gradientUnits="userSpaceOnUse" x1="59.3038" y1="25.4896" x2="59.3895" y2="25.3411">
	<stop  offset="0.3495" style="stop-color:#CAC8C8"/>
	<stop  offset="0.4181" style="stop-color:#CDCABA"/>
	<stop  offset="0.5466" style="stop-color:#D7CF96"/>
	<stop  offset="0.7212" style="stop-color:#E6D75D"/>
	<stop  offset="0.9332" style="stop-color:#FAE10E"/>
	<stop  offset="0.9677" style="stop-color:#FEE300"/>
</linearGradient>
<path fill="url(#SVGID_4_)" d="M58.944,25.084c0.275,0.212,0.542,0.436,0.805,0.663C59.506,25.536,59.237,25.314,58.944,25.084z"/>
<linearGradient id="SVGID_5_" gradientUnits="userSpaceOnUse" x1="60.2287" y1="26.3114" x2="60.3263" y2="26.1424">
	<stop  offset="0.3495" style="stop-color:#CAC8C8"/>
	<stop  offset="0.4181" style="stop-color:#CDCABA"/>
	<stop  offset="0.5466" style="stop-color:#D7CF96"/>
	<stop  offset="0.7212" style="stop-color:#E6D75D"/>
	<stop  offset="0.9332" style="stop-color:#FAE10E"/>
	<stop  offset="0.9677" style="stop-color:#FEE300"/>
</linearGradient>
<path fill="url(#SVGID_5_)" d="M59.956,25.928c0.22,0.194,0.434,0.394,0.644,0.597C60.414,26.346,60.197,26.144,59.956,25.928z"/>
<path fill="#58595B" d="M70.918,33.938l-0.535-1.539l-0.648-1.491c-0.478-0.976-0.975-1.924-1.622-2.861
	c-1.117-1.726-2.524-3.442-4.109-4.877c-0.938-0.872-1.941-1.68-2.992-2.402c-0.272-0.187-0.535-0.366-0.806-0.535
	c-0.15-0.094-0.301-0.187-0.451-0.28c-0.319-0.189-0.637-0.376-0.966-0.554c-1.05-0.573-2.13-1.06-3.236-1.473
	c-2.87-1.088-5.872-1.708-8.845-1.915c-2.053-0.139-4.108-0.13-6.134,0.029c-2.026,0.187-4.024,0.487-5.993,0.89
	c-1.96,0.442-3.893,0.966-5.788,1.605c-1.885,0.637-3.733,1.378-5.516,2.288l0.207,0.506c0.938-0.244,1.894-0.449,2.851-0.629
	c0.957-0.196,1.915-0.364,2.871-0.515c1.914-0.3,3.836-0.544,5.75-0.676c1.914-0.15,3.827-0.207,5.713-0.15
	c1.894,0.048,3.77,0.198,5.609,0.487c1.829,0.319,3.63,0.724,5.347,1.304c0.855,0.291,1.683,0.632,2.494,1.011
	c0.046,0.022,0.092,0.042,0.14,0.064c0.112,0.053,0.228,0.097,0.339,0.154c0,0.002-0.002,0.005-0.002,0.009
	c1.781,0.85,3.228,1.814,4.326,2.675v-0.002c0.008,0.007,0.015,0.013,0.024,0.02c0.293,0.231,0.562,0.452,0.805,0.663
	c0.069,0.06,0.138,0.121,0.206,0.182c0.242,0.216,0.459,0.418,0.644,0.597c0.038,0.037,0.076,0.07,0.113,0.104
	c0.056,0.053,0.104,0.112,0.159,0.165c0.02,0.02,0.035,0.037,0.055,0.057c1.183,1.182,2.164,2.486,3.144,3.943
	c0.45,0.685,0.882,1.463,1.295,2.242l0.562,1.191l0.497,1.211c0.61,1.633,0.957,3.358,1.136,5.102
	c0.328,3.49-0.291,7.149-1.924,10.432c-0.806,1.641-1.867,3.179-3.115,4.549c-1.237,1.389-2.729,2.55-4.323,3.545
	c-1.604,0.986-3.358,1.717-5.187,2.195c-1.481,0.403-2.983,0.601-4.52,0.658c-0.56,0.007-1.11,0.026-1.11,0.026
	c-0.215,0.002-0.436-0.002-0.663-0.011c-0.051,0.22-0.097,0.44-0.15,0.659l-0.253,1.061l1.106-0.009
	c2.093,0.026,4.043-0.291,6.003-0.778c1.969-0.498,3.874-1.229,5.694-2.167c1.819-0.938,3.489-2.158,5.036-3.517
	c1.548-1.379,2.908-2.973,4.061-4.717c2.308-3.499,3.677-7.747,3.668-12.1C71.912,38.195,71.536,36.019,70.918,33.938z"/>
<path fill="#58595B" d="M19.917,63.25h2.068l11.672-40.515c-1.468,0.029-4.543,0.168-6.044,0.447L19.917,63.25z"/>
<path fill="#FFCE00" d="M48.585,61.511c0.368-1.444,0.755-2.892,1.142-4.336c0.47-1.798,0.977-3.589,1.484-5.378
	c1.014-3.577,2.085-7.148,3.137-10.717c1.07-3.571,2.111-7.14,3.117-10.72c0.461-1.697,0.923-3.383,1.375-5.08
	c-1.079-0.847-2.502-1.794-4.254-2.63c-0.488,2.22-0.949,4.448-1.41,6.679c-0.738,3.643-1.43,7.305-2.094,10.966
	c-0.692,3.662-1.346,7.325-2.075,10.976c-0.359,1.827-0.719,3.654-1.115,5.461c-0.341,1.608-0.681,3.208-1.052,4.803
	c0.223,0.008,0.441,0.013,0.652,0.011l-0.006-0.007c0.301,0,0.596-0.006,0.894-0.015C48.452,61.52,48.517,61.516,48.585,61.511z"/>
<path fill="#FFCE00" d="M107.352,26.691c-0.219-2.848-0.866-5.862-2.166-8.795c-1.29-2.929-3.245-5.743-5.749-8.145
	c-2.506-2.396-5.543-4.371-8.858-5.801c-6.654-2.911-14.214-3.758-21.736-3.522c-3.789,0.155-7.538,0.566-11.391,1.196
	c-3.72,0.625-7.549,1.47-11.31,2.504C42.377,5.183,38.617,6.42,34.976,8c-3.644,1.566-7.179,3.432-10.531,5.576
	c-6.689,4.289-12.713,9.669-17.142,16.106c-2.186,3.23-3.971,6.709-5.155,10.387c-1.185,3.67-1.729,7.558-1.42,11.402
	c0.274,3.846,1.492,7.624,3.5,10.872c1.01,1.618,2.201,3.106,3.525,4.428c1.342,1.304,2.806,2.445,4.336,3.421
	c0.761,0.483,1.55,0.926,2.391,1.344c0.416,0.218,0.757,0.359,1.137,0.541l0.277,0.128c0.192,0.088,0.227,0.096,0.348,0.144
	l0.603,0.234c0.802,0.315,1.597,0.629,2.407,0.87c0.803,0.269,1.609,0.503,2.416,0.691c3.217,0.81,6.383,1.233,9.41,1.409
	c6.069,0.259,11.563-0.397,16.289-1.42c2.37-0.49,4.553-1.077,6.544-1.684c1.993-0.603,3.798-1.227,5.406-1.849
	c2.213-0.84,4.048-1.65,5.518-2.346c1.604-0.499,3.181-1.108,4.742-1.764c1.836-0.793,3.625-1.706,5.359-2.729
	c1.725-1.043,3.431-2.149,5-3.441c1.585-1.273,3.117-2.629,4.519-4.133c1.403-1.494,2.693-3.117,3.855-4.843
	c2.288-3.467,4.049-7.397,4.769-11.668c0.359-2.13,0.461-4.325,0.249-6.52c-0.111-1.099-0.296-2.196-0.572-3.266
	c-0.259-1.052-0.702-2.351-1.051-3.145c-0.406-1.061-0.969-2.093-1.587-3.072c-0.664-0.958-1.384-1.899-2.232-2.702
	c-1.641-1.688-3.671-2.886-5.718-3.799c-2.057-0.868-4.189-1.449-6.3-1.782c-2.113-0.313-4.224-0.423-6.291-0.387
	c-4.16,0.056-8.201,0.656-12.157,1.54l-1.596,0.36l-0.296,1.357c1.088,0.405,2.149,0.884,3.182,1.448
	c0.323,0.175,0.637,0.359,0.95,0.544c0.148,0.092,0.296,0.184,0.443,0.276c0.266,0.166,0.525,0.342,0.793,0.526
	c2.897-0.405,5.802-0.618,8.662-0.571c1.835,0.036,3.643,0.202,5.387,0.515c1.752,0.287,3.412,0.766,4.952,1.422
	c1.513,0.683,2.888,1.54,4.022,2.628c1.144,1.07,2.048,2.371,2.712,3.855c0.203,0.452,0.415,0.913,0.516,1.245
	c0.12,0.369,0.277,0.712,0.368,1.144c0.25,0.812,0.406,1.643,0.535,2.482c0.258,1.688,0.268,3.43,0.065,5.174
	c-0.433,3.477-1.697,6.927-3.486,10.119c-0.905,1.586-1.984,3.099-3.127,4.556c-1.135,1.475-2.435,2.832-3.791,4.133
	c-1.356,1.301-2.823,2.499-4.336,3.652c-1.521,1.135-3.136,2.159-4.778,3.145c-1.661,0.96-3.376,1.836-5.137,2.637
	c-1.369,0.381-2.973,0.804-4.813,1.245c-1.643,0.375-3.454,0.795-5.439,1.169c-1.986,0.366-4.138,0.712-6.435,1.016
	c-4.595,0.56-9.815,0.913-15.382,0.398c-2.781-0.229-5.647-0.688-8.502-1.484c-0.721-0.18-1.425-0.421-2.138-0.658
	c-0.721-0.211-1.421-0.492-2.13-0.769l-0.533-0.205l-0.22-0.084l-0.28-0.121c-0.36-0.162-0.782-0.33-1.096-0.49
	c-0.64-0.302-1.301-0.661-1.978-1.027c-1.328-0.746-2.599-1.629-3.772-2.648c-1.193-1.002-2.295-2.141-3.263-3.416
	c-1.959-2.529-3.396-5.615-4.028-9c-0.319-1.69-0.432-3.444-0.37-5.217c0.069-1.775,0.379-3.556,0.824-5.318
	c0.918-3.522,2.581-6.909,4.759-9.952c4.328-6.156,10.615-10.87,17.366-14.291c6.786-3.427,14.048-5.765,21.316-7.466
	c3.65-0.848,7.271-1.484,10.962-1.974c3.558-0.476,7.194-0.769,10.685-0.806c6.997-0.16,13.736,0.706,19.437,2.971
	c2.853,1.121,5.387,2.661,7.534,4.483c2.137,1.839,3.798,4.034,5.017,6.358c1.236,2.32,1.962,4.803,2.322,7.226
	c0.37,2.425,0.375,4.803,0.114,7.017c-0.512,4.444-1.985,8.201-3.619,11.023c-1.656,2.825-3.448,4.758-4.788,5.925
	c-0.659,0.6-1.211,1.015-1.587,1.285c-0.379,0.269-0.575,0.407-0.575,0.407l0.26,0.468c0,0,0.223-0.108,0.652-0.317
	c0.431-0.212,1.066-0.542,1.85-1.049c1.574-0.994,3.773-2.738,5.923-5.557c1.083-1.4,2.123-3.079,3.036-5.025
	c0.919-1.938,1.716-4.149,2.22-6.606C107.293,32.247,107.561,29.547,107.352,26.691z"/>
</svg>
